<svg width="29" height="28" viewBox="0 0 29 28" fill="none" xmlns="http://www.w3.org/2000/svg">
<g opacity="0.8">
<path d="M25.875 4.40234H19.6188C18.2762 4.40234 16.9637 4.78789 15.8344 5.51524L14.5 6.37109L13.1656 5.51524C12.0375 4.78803 10.7235 4.40163 9.38125 4.40234H3.125C2.64102 4.40234 2.25 4.79336 2.25 5.27734V20.8086C2.25 21.2926 2.64102 21.6836 3.125 21.6836H9.38125C10.7238 21.6836 12.0363 22.0691 13.1656 22.7965L14.3797 23.5785C14.4152 23.6004 14.4562 23.6141 14.4973 23.6141C14.5383 23.6141 14.5793 23.6031 14.6148 23.5785L15.8289 22.7965C16.9609 22.0691 18.2762 21.6836 19.6188 21.6836H25.875C26.359 21.6836 26.75 21.2926 26.75 20.8086V5.27734C26.75 4.79336 26.359 4.40234 25.875 4.40234ZM9.38125 19.7148H4.21875V6.37109H9.38125C10.3492 6.37109 11.2898 6.64727 12.102 7.16953L13.4363 8.02539L13.625 8.14844V20.7813C12.3234 20.0813 10.8687 19.7148 9.38125 19.7148ZM24.7812 19.7148H19.6188C18.1313 19.7148 16.6766 20.0813 15.375 20.7813V8.14844L15.5637 8.02539L16.898 7.16953C17.7102 6.64727 18.6508 6.37109 19.6188 6.37109H24.7812V19.7148ZM11.3527 9.87109H6.27227C6.16563 9.87109 6.07812 9.96406 6.07812 10.0762V11.3066C6.07812 11.4188 6.16563 11.5117 6.27227 11.5117H11.35C11.4566 11.5117 11.5441 11.4188 11.5441 11.3066V10.0762C11.5469 9.96406 11.4594 9.87109 11.3527 9.87109ZM17.4531 10.0762V11.3066C17.4531 11.4188 17.5406 11.5117 17.6473 11.5117H22.725C22.8316 11.5117 22.9191 11.4188 22.9191 11.3066V10.0762C22.9191 9.96406 22.8316 9.87109 22.725 9.87109H17.6473C17.5406 9.87109 17.4531 9.96406 17.4531 10.0762ZM11.3527 13.6992H6.27227C6.16563 13.6992 6.07812 13.7922 6.07812 13.9043V15.1348C6.07812 15.2469 6.16563 15.3398 6.27227 15.3398H11.35C11.4566 15.3398 11.5441 15.2469 11.5441 15.1348V13.9043C11.5469 13.7922 11.4594 13.6992 11.3527 13.6992ZM22.7277 13.6992H17.6473C17.5406 13.6992 17.4531 13.7922 17.4531 13.9043V15.1348C17.4531 15.2469 17.5406 15.3398 17.6473 15.3398H22.725C22.8316 15.3398 22.9191 15.2469 22.9191 15.1348V13.9043C22.9219 13.7922 22.8344 13.6992 22.7277 13.6992Z" fill="black"/>
</g>
</svg>
