<svg width="29" height="28" viewBox="0 0 29 28" fill="none" xmlns="http://www.w3.org/2000/svg">
<g opacity="0.8">
<path d="M7.78437 1.36719L4.8482 6.50781H24.1523L21.2156 1.36719H7.78437ZM1.86719 7.49219V10.0078H27.1328V7.49219H1.86719ZM3.61719 10.9922V13.5078H6.13281V10.9922H3.61719ZM22.8672 10.9922V13.5078H25.3828V10.9922H22.8672ZM13.4938 11.025C13.4938 11.025 12.2906 11.5062 12.1813 12.0531C11.9297 13.3 14.0352 15.3781 14.0352 15.3781C14.0352 15.3781 13.3078 13.4859 13.2531 12.4906C13.2258 11.993 13.4938 11.025 13.4938 11.025ZM16.4688 11.8344C16.1352 14.0328 15.8563 16.4117 13.9586 17.3141C12.3016 18.1016 11.968 13.0211 8.8125 12.3102C11.268 17.8391 5.04453 19.9609 11.1203 22.4383H12.1867C10.8742 21.0219 10.3055 17.4727 10.3055 17.4727C10.3055 17.4727 11.957 21.4102 13.7234 21.5305C14.5438 21.5852 15.5555 19.8789 15.5555 19.8789C15.5555 19.8789 15.8781 21.5086 15.55 22.4383H17.9453C19.4383 21.6289 20.3844 20.4859 20.7453 19.3047C21.1008 18.1617 20.9094 16.9805 20.1492 16.0289C19.6789 18.8617 18.9789 19.4633 17.1359 20.0813C19.1375 17.6367 18.2406 13.5625 16.4688 11.8344ZM3.61719 14.4922V17.0078H6.13281V14.4922H3.61719ZM22.8672 14.4922V17.0078H25.3828V14.4922H22.8672ZM3.61719 17.9922V22.2578H6.13281V17.9922H3.61719ZM22.8672 17.9922V22.2578H25.3828V17.9922H22.8672ZM1.86719 23.2422V26.6328H27.1328V23.2422H1.86719Z" fill="black"/>
</g>
</svg>
