<svg width="29" height="28" viewBox="0 0 29 28" fill="none" xmlns="http://www.w3.org/2000/svg">
<g opacity="0.8" clip-path="url(#clip0_205_4607)">
<path d="M22.666 8.16602C22.666 8.16602 16.8327 16.3327 8.08268 16.3327M8.08268 16.3327C5.74935 16.3327 1.66602 17.4994 1.66602 22.166V26.8327H14.4993V22.166C14.4993 19.2494 17.9994 20.9994 22.666 12.8327L20.916 11.0827M8.08268 16.3327C10.3378 16.3327 12.166 14.5045 12.166 12.2493C12.166 9.99419 10.3378 8.16602 8.08268 8.16602C5.82752 8.16602 3.99935 9.99419 3.99935 12.2493C3.99935 14.5045 5.82752 16.3327 8.08268 16.3327ZM3.99935 5.83268V2.33268H27.3327V18.666H23.8327M13.3327 1.16602H17.9994V3.49935H13.3327V1.16602Z" stroke="black" stroke-width="2.33333"/>
</g>
<defs>
<clipPath id="clip0_205_4607">
<rect width="28" height="28" fill="white" transform="translate(0.5)"/>
</clipPath>
</defs>
</svg>
