<svg width="60" height="60" viewBox="0 0 60 60" fill="none" xmlns="http://www.w3.org/2000/svg">
<path d="M30.8627 2.27062C29.4837 2.27062 28.2054 2.9898 27.2116 4.28859C26.36 5.40117 25.7589 6.93 25.6038 8.65383C26.9093 8.07656 28.2374 7.72687 29.5663 7.59914V9.75598C28.2813 9.91734 26.9872 10.3429 25.6807 11.0486C25.9113 12.5119 26.4662 13.8027 27.2115 14.7768C28.2053 16.0754 29.4834 16.7947 30.8625 16.7947C32.2416 16.7947 33.5235 16.0754 34.5173 14.7768C35.24 13.8322 35.781 12.5892 36.0224 11.1805C34.6079 10.3799 33.1871 9.8918 31.7561 9.73394V7.58801C33.2415 7.71539 34.7115 8.11723 36.1323 8.78191C35.997 7.00559 35.3898 5.42871 34.5175 4.28848C33.5235 2.9898 32.2417 2.27051 30.8624 2.27051L30.8627 2.27062ZM25.4025 16.0109C24.1788 16.5734 23.2474 17.3212 22.7549 18.1753L22.7109 18.1642L17.833 25.7155L11.8968 23.1409C8.45437 21.2521 4.68105 25.9534 8.308 28.0262L19.3787 33.1898L23.8354 27.323C26.0268 31.2725 25.8006 35.2249 22.5498 39.1772C21.572 39.1019 20.6314 39.0649 19.7412 39.071C15.0171 39.1036 11.662 40.2727 11.0802 42.4437L11.0837 42.4439C10.5634 44.3869 12.3718 46.7412 15.6688 48.922C22.1932 52.3553 26.8461 53.43 34.0635 53.8842H34.2465L34.2979 53.8989C34.3475 53.9019 34.3943 53.9071 34.4443 53.9099L34.4406 53.9467L45.2292 57.3123L42.6288 51.017L21.5135 44.004L22.202 41.9275L30.6172 44.7218L39.0366 41.9276L39.725 44.004L34.089 45.8755L45.156 49.5521C49.0811 47.203 51.3116 44.5754 50.7407 42.444C50.0434 39.8413 45.3588 38.6815 39.1098 39.1883C36.017 35.2959 36.04 31.4059 37.993 27.5135L42.3032 33.19L53.3739 28.0262C57.0008 25.9535 53.2274 21.2521 49.7849 23.141L43.8449 25.7154L38.9706 18.1642H38.9633C38.4691 17.315 37.5413 16.5709 36.3231 16.0109C36.2996 16.0425 36.2771 16.075 36.2534 16.1061C34.9329 17.8317 33.0151 18.9845 30.8627 18.9845C28.7104 18.9845 26.7926 17.8317 25.4721 16.106C25.4483 16.075 25.4259 16.0424 25.4025 16.0109ZM17.9393 52.4562L15.9799 57.2023L24.1685 54.6499C22.1032 54.1139 20.0752 53.4037 17.9393 52.4562Z" fill="black" stroke="white"/>
</svg>
